<svg xmlns="http://www.w3.org/2000/svg" width="32" height="32" fill="#DE6FA1" viewBox="0 -960 960 960">
  <path d="M479-34q-91.164 0-172.742-35.02-81.578-35.02-141.898-95.34-60.32-60.32-95.34-141.743Q34-387.527 34-480.083q0-92.557 35.02-173.897 35.02-81.34 95.34-141.66 60.32-60.32 141.743-95.34Q387.527-926 480.083-926q92.557 0 173.897 35.02 81.34 35.02 141.66 95.34 60.32 60.32 95.34 141.898T926-481v64q0 67.648-49.839 115.324Q826.321-254 756-254q-39.247 0-73.124-15.5Q649-285 626-315q-27 32-65.261 46.5Q522.478-254 480-254q-93.62 0-159.81-66.19T254-480q0-93.62 66.19-159.81T480-706q93.62 0 159.81 66.19T706-480v55q0 21.484 15 36.242Q736-374 756.977-374q19.976 0 34-14.758Q805-403.516 805-425v-56q0-135-95-229.5T480-805q-135 0-230 95t-95 230q0 135 94.288 230 94.289 95 230.267 95H682v121H479Zm1.294-340Q524-374 555-405.294t31-75Q586-524 554.706-555t-75-31Q436-586 405-554.706t-31 75Q374-436 405.294-405t75 31Z"/>
</svg>